<svg width="23" height="24" viewBox="0 0 23 24" fill="none" xmlns="http://www.w3.org/2000/svg"><path d="M15.0937 10.5625C15.0937 11.5576 14.7987 12.5304 14.2458 13.3577C13.693 14.1851 12.9072 14.83 11.9879 15.2108C11.0685 15.5916 10.0569 15.6912 9.08095 15.4971C8.10498 15.303 7.2085 14.8238 6.50487 14.1202C5.80123 13.4165 5.32205 12.52 5.12792 11.5441C4.93379 10.5681 5.03342 9.55649 5.41423 8.63715C5.79503 7.71781 6.4399 6.93204 7.26728 6.37919C8.09467 5.82635 9.06741 5.53128 10.0625 5.53128C11.3969 5.53128 12.6766 6.06135 13.6201 7.0049C14.5637 7.94844 15.0937 9.22816 15.0937 10.5625ZM20.6335 21.1335C20.5668 21.2004 20.4875 21.2534 20.4002 21.2896C20.313 21.3257 20.2194 21.3443 20.125 21.3443C20.0305 21.3443 19.937 21.3257 19.8498 21.2896C19.7625 21.2534 19.6832 21.2004 19.6165 21.1335L15.1189 16.6351C13.5548 17.9363 11.5493 18.5844 9.51954 18.4447C7.48976 18.305 5.59198 17.3882 4.22094 15.8849C2.8499 14.3817 2.11115 12.4077 2.15835 10.3737C2.20555 8.33967 3.03508 6.40213 4.47438 4.9641C5.91368 3.52607 7.85195 2.69826 9.88602 2.65285C11.9201 2.60744 13.8934 3.34794 15.3954 4.72031C16.8974 6.09268 17.8126 7.99127 17.9505 10.0212C18.0885 12.0511 17.4385 14.056 16.1359 15.6189L20.6335 20.1165C20.7003 20.1833 20.7534 20.2625 20.7895 20.3498C20.8257 20.437 20.8443 20.5306 20.8443 20.625C20.8443 20.7195 20.8257 20.813 20.7895 20.9003C20.7534 20.9875 20.7003 21.0668 20.6335 21.1335ZM10.0625 17.0313C11.3419 17.0313 12.5926 16.6519 13.6563 15.9411C14.7201 15.2303 15.5492 14.22 16.0388 13.038C16.5284 11.856 16.6565 10.5554 16.4069 9.30054C16.1574 8.04572 15.5413 6.8931 14.6366 5.98843C13.7319 5.08376 12.5793 4.46767 11.3245 4.21807C10.0697 3.96847 8.76902 4.09658 7.58701 4.58618C6.405 5.07579 5.39472 5.9049 4.68393 6.96868C3.97313 8.03246 3.59375 9.28313 3.59375 10.5625C3.59565 12.2776 4.27779 13.9218 5.4905 15.1345C6.70321 16.3472 8.34746 17.0294 10.0625 17.0313Z" fill="#BABEC3"></path></svg>